<?xml version="1.0" encoding="UTF-8" standalone="no"?>
<!-- Created with Inkscape (http://www.inkscape.org/) -->
<svg
   xmlns:dc="http://purl.org/dc/elements/1.1/"
   xmlns:cc="http://web.resource.org/cc/"
   xmlns:rdf="http://www.w3.org/1999/02/22-rdf-syntax-ns#"
   xmlns:svg="http://www.w3.org/2000/svg"
   xmlns="http://www.w3.org/2000/svg"
   xmlns:sodipodi="http://inkscape.sourceforge.net/DTD/sodipodi-0.dtd"
   xmlns:inkscape="http://www.inkscape.org/namespaces/inkscape"
   width="5.6999996cm"
   height="10.000000cm"
   id="svg2"
   sodipodi:version="0.32"
   inkscape:version="0.42.2"
   sodipodi:docbase="/home/benjamin"
   sodipodi:docname="deck bavaria2.svg">
  <defs
     id="defs4" />
  <sodipodi:namedview
     id="base"
     pagecolor="#ffffff"
     bordercolor="#666666"
     borderopacity="1.0"
     inkscape:pageopacity="0.64313725"
     inkscape:pageshadow="2"
     inkscape:zoom="0.98994949"
     inkscape:cx="242.15690"
     inkscape:cy="151.44696"
     inkscape:document-units="px"
     inkscape:current-layer="g10635"
     showguides="true"
     inkscape:guide-bbox="true"
     inkscape:window-width="1016"
     inkscape:window-height="698"
     inkscape:window-x="0"
     inkscape:window-y="0" />
  <metadata
     id="metadata7">
    <rdf:RDF>
      <cc:Work
         rdf:about="">
        <dc:format>image/svg+xml</dc:format>
        <dc:type
           rdf:resource="http://purl.org/dc/dcmitype/StillImage" />
      </cc:Work>
    </rdf:RDF>
  </metadata>
  <g
     inkscape:label="Ebene 1"
     inkscape:groupmode="layer"
     id="layer1">
    <path
       style="fill:#ffffff;fill-opacity:1.0000000;stroke:#000000;stroke-width:1.0440000;stroke-miterlimit:4.0000000;stroke-dasharray:none;stroke-dashoffset:0.0000000;stroke-opacity:1.0000000"
       d="M 401.61877,-30.328051 L 401.61877,354.67195 L 641.61877,354.67195 L 641.61877,-30.328051 L 401.61877,-30.328051 z M 444.96252,-19.796801 L 601.49377,-19.796801 C 613.80551,-19.796801 623.71252,-9.8897900 623.71252,2.4219490 L 623.71252,311.32820 C 623.71252,323.63995 613.80551,333.57820 601.49377,333.57820 L 444.96252,333.57820 C 432.65078,333.57821 422.74377,323.63994 422.74377,311.32820 L 422.74377,2.4219490 C 422.74377,-9.8897900 432.65078,-19.796801 444.96252,-19.796801 z "
       id="rect7949" />
    <g
       id="g10635"
       transform="translate(24.24363,31.31473)">
      <g
         id="g12724">
        <rect
           style="opacity:0.60000002;fill:#ffffff;fill-opacity:1.0000000;stroke:#000000;stroke-width:0.70866144;stroke-miterlimit:4.0000000;stroke-dasharray:none;stroke-dashoffset:0.0000000;stroke-opacity:1.0000000"
           id="rect9164"
           width="201.96851"
           height="354.33072"
           x="-23.889299"
           y="-31.669062"
           rx="20.203051"
           ry="20.203051" />
        <path
           style="fill:#4184eb;fill-opacity:0.84937239;stroke:none;stroke-width:1.0000000;stroke-miterlimit:4.0000000;stroke-dasharray:24.000000 1.0000000 ;stroke-dashoffset:0.0000000;stroke-opacity:1.0000000"
           d="M 6.7563700,-31.327829 L 10.006370,-24.952829 L 21.256369,-24.952829 L 18.006369,-31.327829 L 6.7563700,-31.327829 z M 21.256369,-24.952829 L 26.943869,-13.734076 L 38.193869,-13.734076 L 32.475119,-24.952829 L 21.256369,-24.952829 z M 32.475119,-24.952829 L 43.725119,-24.952829 L 40.475119,-31.327829 L 29.256369,-31.327829 L 32.475119,-24.952829 z M 43.725119,-24.952829 L 49.412619,-13.734076 L 60.662619,-13.734076 L 54.943869,-24.952829 L 43.725119,-24.952829 z M 54.943869,-24.952829 L 66.193869,-24.952829 L 62.943869,-31.327829 L 51.725119,-31.327829 L 54.943869,-24.952829 z M 66.193869,-24.952829 L 71.912619,-13.734076 L 83.131369,-13.734076 L 77.443869,-24.952829 L 66.193869,-24.952829 z M 77.443869,-24.952829 L 88.662619,-24.952829 L 85.412619,-31.327829 L 74.193869,-31.327829 L 77.443869,-24.952829 z M 88.662619,-24.952829 L 94.381369,-13.734076 L 105.60012,-13.734076 L 99.912619,-24.952829 L 88.662619,-24.952829 z M 99.912619,-24.952829 L 111.13137,-24.952829 L 107.91262,-31.327829 L 96.662619,-31.327829 L 99.912619,-24.952829 z M 111.13137,-24.952829 L 116.85012,-13.734076 L 128.06887,-13.734076 L 122.38137,-24.952829 L 111.13137,-24.952829 z M 122.38137,-24.952829 L 133.60012,-24.952829 L 130.38137,-31.327829 L 119.13137,-31.327829 L 122.38137,-24.952829 z M 133.60012,-24.952829 L 139.31887,-13.734076 L 150.56887,-13.734076 L 144.85012,-24.952829 L 133.60012,-24.952829 z M 144.85012,-24.952829 L 156.10012,-24.952829 L 152.85012,-31.327829 L 141.60012,-31.327829 L 144.85012,-24.952829 z M 156.10012,-24.952829 L 161.78762,-13.734076 L 173.03762,-13.734076 L 167.31887,-24.952829 L 156.10012,-24.952829 z M 167.31887,-24.952829 L 172.19387,-24.952829 C 170.14117,-27.130780 167.63595,-28.827157 164.78762,-29.921579 L 167.31887,-24.952829 z M 173.03762,-13.734076 L 177.72512,-4.4528257 L 177.72512,-11.140326 C 177.72512,-12.033256 177.58635,-12.872396 177.47512,-13.734076 L 173.03762,-13.734076 z M 161.78762,-13.734076 L 150.56887,-13.734076 L 156.25637,-2.4840757 L 167.50637,-2.4840757 L 161.78762,-13.734076 z M 167.50637,-2.4840757 L 173.19387,8.7346743 L 177.72512,8.7346743 L 177.72512,-2.4840757 L 167.50637,-2.4840757 z M 173.19387,8.7346743 L 161.97512,8.7346743 L 167.69387,19.953424 L 177.72512,19.953424 L 177.72512,17.609674 L 173.19387,8.7346743 z M 167.69387,19.953424 L 156.44387,19.953424 L 162.16262,31.172174 L 173.38137,31.172174 L 167.69387,19.953424 z M 173.38137,31.172174 L 177.72512,39.703424 L 177.72512,31.172174 L 173.38137,31.172174 z M 162.16262,31.172174 L 150.91262,31.172174 L 156.63137,42.422174 L 167.85012,42.422174 L 162.16262,31.172174 z M 167.85012,42.422174 L 173.56887,53.640924 L 177.72512,53.640924 L 177.72512,42.422174 L 167.85012,42.422174 z M 173.56887,53.640924 L 162.31887,53.640924 L 168.03762,64.859674 L 177.72512,64.859674 L 177.72512,61.828424 L 173.56887,53.640924 z M 168.03762,64.859674 L 156.78762,64.859674 L 162.50637,76.109672 L 173.75637,76.109672 L 168.03762,64.859674 z M 173.75637,76.109672 L 177.72512,83.953422 L 177.72512,76.109672 L 173.75637,76.109672 z M 162.50637,76.109672 L 151.25637,76.109672 L 156.97512,87.328422 L 168.22512,87.328422 L 162.50637,76.109672 z M 168.22512,87.328422 L 173.91262,98.547172 L 177.72512,98.547172 L 177.72512,87.328422 L 168.22512,87.328422 z M 173.91262,98.547172 L 162.69387,98.547172 L 168.38137,109.76592 L 177.72512,109.76592 L 177.72512,106.01592 L 173.91262,98.547172 z M 168.38137,109.76592 L 157.16262,109.76592 L 162.85012,121.01592 L 174.10012,121.01592 L 168.38137,109.76592 z M 174.10012,121.01592 L 177.72512,128.14092 L 177.72512,121.01592 L 174.10012,121.01592 z M 162.85012,121.01592 L 151.63137,121.01592 L 157.31887,132.23467 L 168.56887,132.23467 L 162.85012,121.01592 z M 168.56887,132.23467 L 174.28762,143.45342 L 177.72512,143.45342 L 177.72512,132.23467 L 168.56887,132.23467 z M 174.28762,143.45342 L 163.03762,143.45342 L 168.75637,154.70342 L 177.72512,154.70342 L 177.72512,150.26592 L 174.28762,143.45342 z M 168.75637,154.70342 L 157.50637,154.70342 L 163.22512,165.92217 L 174.44387,165.92217 L 168.75637,154.70342 z M 174.44387,165.92217 L 177.72512,172.35967 L 177.72512,165.92217 L 174.44387,165.92217 z M 163.22512,165.92217 L 151.97512,165.92217 L 157.69387,177.14092 L 168.91262,177.14092 L 163.22512,165.92217 z M 168.91262,177.14092 L 174.63137,188.35967 L 177.72512,188.35967 L 177.72512,177.14092 L 168.91262,177.14092 z M 174.63137,188.35967 L 163.38137,188.35967 L 169.10012,199.60967 L 177.72512,199.60967 L 177.72512,194.45342 L 174.63137,188.35967 z M 169.10012,199.60967 L 157.85012,199.60967 L 163.56887,210.82842 L 174.81887,210.82842 L 169.10012,199.60967 z M 174.81887,210.82842 L 177.72512,216.54717 L 177.72512,210.82842 L 174.81887,210.82842 z M 163.56887,210.82842 L 152.35012,210.82842 L 158.03762,222.04717 L 169.28762,222.04717 L 163.56887,210.82842 z M 169.28762,222.04717 L 174.97512,233.29717 L 177.72512,233.29717 L 177.72512,222.04717 L 169.28762,222.04717 z M 174.97512,233.29717 L 163.75637,233.29717 L 169.44387,244.51592 L 177.72512,244.51592 L 177.72512,238.70342 L 174.97512,233.29717 z M 169.44387,244.51592 L 158.22512,244.51592 L 163.94387,255.73467 L 175.16262,255.73467 L 169.44387,244.51592 z M 175.16262,255.73467 L 177.72512,260.76592 L 177.72512,255.73467 L 175.16262,255.73467 z M 163.94387,255.73467 L 152.69387,255.73467 L 158.41262,266.95342 L 169.63137,266.95342 L 163.94387,255.73467 z M 169.63137,266.95342 L 175.35012,278.20342 L 177.72512,278.20342 L 177.72512,266.95342 L 169.63137,266.95342 z M 175.35012,278.20342 L 164.10012,278.20342 L 169.81887,289.42217 L 177.72512,289.42217 L 177.72512,282.89092 L 175.35012,278.20342 z M 169.81887,289.42217 L 158.56887,289.42217 L 164.28762,300.64092 L 175.50637,300.64092 L 169.81887,289.42217 z M 175.50637,300.64092 L 177.53762,304.64092 C 177.59354,304.02571 177.72512,303.42743 177.72512,302.79717 L 177.72512,300.64092 L 175.50637,300.64092 z M 164.28762,300.64092 L 153.03762,300.64092 L 158.75637,311.85967 L 170.00637,311.85967 L 164.28762,300.64092 z M 170.00637,311.85967 L 172.35012,316.48467 C 173.61499,315.11311 174.65859,313.54435 175.50637,311.85967 L 170.00637,311.85967 z M 158.75637,311.85967 L 147.50637,311.85967 L 153.16262,323.01592 L 157.50637,323.01592 C 159.73163,323.01592 161.85102,322.54960 163.85012,321.89092 L 158.75637,311.85967 z M 147.50637,311.85967 L 141.81887,300.64092 L 130.56887,300.64092 L 136.28762,311.85967 L 147.50637,311.85967 z M 136.28762,311.85967 L 125.03762,311.85967 L 130.69387,323.01592 L 141.91262,323.01592 L 136.28762,311.85967 z M 125.03762,311.85967 L 119.35012,300.64092 L 108.10012,300.64092 L 113.81887,311.85967 L 125.03762,311.85967 z M 113.81887,311.85967 L 102.56887,311.85967 L 108.22512,323.01592 L 119.44387,323.01592 L 113.81887,311.85967 z M 102.56887,311.85967 L 96.850119,300.64092 L 85.631369,300.64092 L 91.318869,311.85967 L 102.56887,311.85967 z M 91.318869,311.85967 L 80.100119,311.85967 L 85.756369,323.01592 L 96.975119,323.01592 L 91.318869,311.85967 z M 80.100119,311.85967 L 74.381369,300.64092 L 63.162619,300.64092 L 68.850119,311.85967 L 80.100119,311.85967 z M 68.850119,311.85967 L 57.631369,311.85967 L 63.256369,323.01592 L 74.506369,323.01592 L 68.850119,311.85967 z M 57.631369,311.85967 L 51.912619,300.64092 L 40.662619,300.64092 L 46.381369,311.85967 L 57.631369,311.85967 z M 46.381369,311.85967 L 35.162619,311.85967 L 40.787619,323.01592 L 52.037619,323.01592 L 46.381369,311.85967 z M 35.162619,311.85967 L 29.443869,300.64092 L 18.193869,300.64092 L 23.912619,311.85967 L 35.162619,311.85967 z M 23.912619,311.85967 L 12.662619,311.85967 L 18.318869,323.01592 L 29.568869,323.01592 L 23.912619,311.85967 z M 12.662619,311.85967 L 6.9751200,300.64092 L -4.2748800,300.64092 L 1.4438700,311.85967 L 12.662619,311.85967 z M 1.4438700,311.85967 L -9.8061300,311.85967 L -4.1498800,323.01592 C -4.1180000,323.01607 -4.0880500,323.01592 -4.0561300,323.01592 L 7.0688700,323.01592 L 1.4438700,311.85967 z M -9.8061300,311.85967 L -15.493630,300.64092 L -24.243630,300.64092 L -24.243630,302.79717 C -24.243630,303.96147 -24.087200,305.09403 -23.899880,306.20342 L -21.024880,311.85967 L -9.8061300,311.85967 z M -21.024880,311.85967 L -22.024880,311.85967 C -21.073160,313.75088 -19.902260,315.52552 -18.431130,317.01592 L -21.024880,311.85967 z M -15.493630,300.64092 L -4.2748800,300.64092 L -9.9623800,289.42217 L -21.212380,289.42217 L -15.493630,300.64092 z M -21.212380,289.42217 L -24.243630,283.48467 L -24.243630,289.42217 L -21.212380,289.42217 z M -9.9623800,289.42217 L 1.2563700,289.42217 L -4.4311300,278.20342 L -15.681130,278.20342 L -9.9623800,289.42217 z M -15.681130,278.20342 L -21.399880,266.95342 L -24.243630,266.95342 L -24.243630,278.20342 L -15.681130,278.20342 z M -21.399880,266.95342 L -10.149880,266.95342 L -15.868630,255.73467 L -24.243630,255.73467 L -24.243630,261.35967 L -21.399880,266.95342 z M -15.868630,255.73467 L -4.6186300,255.73467 L -10.337380,244.51592 L -21.556130,244.51592 L -15.868630,255.73467 z M -21.556130,244.51592 L -24.243630,239.23467 L -24.243630,244.51592 L -21.556130,244.51592 z M -10.337380,244.51592 L 0.91262000,244.51592 L -4.8061300,233.29717 L -16.024880,233.29717 L -10.337380,244.51592 z M -16.024880,233.29717 L -21.743630,222.04717 L -24.243630,222.04717 L -24.243630,233.29717 L -16.024880,233.29717 z M -21.743630,222.04717 L -10.524880,222.04717 L -16.212380,210.82842 L -24.243630,210.82842 L -24.243630,217.14092 L -21.743630,222.04717 z M -16.212380,210.82842 L -4.9936300,210.82842 L -10.681130,199.60967 L -21.931130,199.60967 L -16.212380,210.82842 z M -21.931130,199.60967 L -24.243630,195.04717 L -24.243630,199.60967 L -21.931130,199.60967 z M -10.681130,199.60967 L 0.53762000,199.60967 L -5.1498800,188.35967 L -16.399880,188.35967 L -10.681130,199.60967 z M -16.399880,188.35967 L -22.087380,177.14092 L -24.243630,177.14092 L -24.243630,188.35967 L -16.399880,188.35967 z M -22.087380,177.14092 L -10.868630,177.14092 L -16.587380,165.92217 L -24.243630,165.92217 L -24.243630,172.92217 L -22.087380,177.14092 z M -16.587380,165.92217 L -5.3373800,165.92217 L -11.056130,154.70342 L -22.274880,154.70342 L -16.587380,165.92217 z M -22.274880,154.70342 L -24.243630,150.82842 L -24.243630,154.70342 L -22.274880,154.70342 z M -11.056130,154.70342 L 0.19387000,154.70342 L -5.5248800,143.45342 L -16.743630,143.45342 L -11.056130,154.70342 z M -16.743630,143.45342 L -22.462380,132.23467 L -24.243630,132.23467 L -24.243630,143.45342 L -16.743630,143.45342 z M -22.462380,132.23467 L -11.212380,132.23467 L -16.931130,121.01592 L -24.243630,121.01592 L -24.243630,128.73467 L -22.462380,132.23467 z M -16.931130,121.01592 L -5.6811300,121.01592 L -11.399880,109.76592 L -22.649880,109.76592 L -16.931130,121.01592 z M -22.649880,109.76592 L -24.243630,106.60967 L -24.243630,109.76592 L -22.649880,109.76592 z M -11.399880,109.76592 L -0.14988000,109.76592 L -5.8686300,98.547172 L -17.118630,98.547172 L -11.399880,109.76592 z M -17.118630,98.547172 L -22.806130,87.328422 L -24.243630,87.328422 L -24.243630,98.547172 L -17.118630,98.547172 z M -22.806130,87.328422 L -11.587380,87.328422 L -17.274880,76.109672 L -24.243630,76.109672 L -24.243630,84.515922 L -22.806130,87.328422 z M -17.274880,76.109672 L -6.0561300,76.109672 L -11.743630,64.859674 L -22.993630,64.859674 L -17.274880,76.109672 z M -22.993630,64.859674 L -24.243630,62.422174 L -24.243630,64.859674 L -22.993630,64.859674 z M -11.743630,64.859674 L -0.52488000,64.859674 L -6.2123800,53.640924 L -17.462380,53.640924 L -11.743630,64.859674 z M -17.462380,53.640924 L -23.181130,42.422174 L -24.243630,42.422174 L -24.243630,53.640924 L -17.462380,53.640924 z M -23.181130,42.422174 L -11.931130,42.422174 L -17.649880,31.172174 L -24.243630,31.172174 L -24.243630,40.328424 L -23.181130,42.422174 z M -17.649880,31.172174 L -6.3998800,31.172174 L -12.118630,19.953424 L -23.337380,19.953424 L -17.649880,31.172174 z M -23.337380,19.953424 L -24.243630,18.172174 L -24.243630,19.953424 L -23.337380,19.953424 z M -12.118630,19.953424 L -0.86863000,19.953424 L -6.5873800,8.7346743 L -17.806130,8.7346743 L -12.118630,19.953424 z M -17.806130,8.7346743 L -23.524880,-2.4840757 L -24.243630,-2.4840757 L -24.243630,8.7346743 L -17.806130,8.7346743 z M -23.524880,-2.4840757 L -12.274880,-2.4840757 L -17.993630,-13.734076 L -23.993630,-13.734076 C -24.104860,-12.872396 -24.243630,-12.033256 -24.243630,-11.140326 L -24.243630,-3.8903257 L -23.524880,-2.4840757 z M -17.993630,-13.734076 L -6.7436300,-13.734076 L -12.462380,-24.952829 L -18.712380,-24.952829 C -19.860880,-23.734247 -20.831530,-22.367023 -21.649880,-20.890329 L -17.993630,-13.734076 z M -12.462380,-24.952829 L -1.2436300,-24.952829 L -4.4623800,-31.296579 C -8.0525500,-31.224470 -11.353400,-30.182465 -14.243630,-28.484079 L -12.462380,-24.952829 z M -1.2436300,-24.952829 L 4.4751200,-13.734076 L 15.725119,-13.734076 L 10.006370,-24.952829 L -1.2436300,-24.952829 z M 15.725119,-13.734076 L 21.412619,-2.4840757 L 32.662619,-2.4840757 L 26.943869,-13.734076 L 15.725119,-13.734076 z M 32.662619,-2.4840757 L 38.381369,8.7346743 L 49.600119,8.7346743 L 43.881369,-2.4840757 L 32.662619,-2.4840757 z M 43.881369,-2.4840757 L 55.131369,-2.4840757 L 49.412619,-13.734076 L 38.193869,-13.734076 L 43.881369,-2.4840757 z M 55.131369,-2.4840757 L 60.850119,8.7346743 L 72.068869,8.7346743 L 66.381369,-2.4840757 L 55.131369,-2.4840757 z M 66.381369,-2.4840757 L 77.600119,-2.4840757 L 71.912619,-13.734076 L 60.662619,-13.734076 L 66.381369,-2.4840757 z M 77.600119,-2.4840757 L 83.318869,8.7346743 L 94.537619,8.7346743 L 88.850119,-2.4840757 L 77.600119,-2.4840757 z M 88.850119,-2.4840757 L 100.06887,-2.4840757 L 94.381369,-13.734076 L 83.131369,-13.734076 L 88.850119,-2.4840757 z M 100.06887,-2.4840757 L 105.78762,8.7346743 L 117.03762,8.7346743 L 111.31887,-2.4840757 L 100.06887,-2.4840757 z M 111.31887,-2.4840757 L 122.56887,-2.4840757 L 116.85012,-13.734076 L 105.60012,-13.734076 L 111.31887,-2.4840757 z M 122.56887,-2.4840757 L 128.25637,8.7346743 L 139.50637,8.7346743 L 133.78762,-2.4840757 L 122.56887,-2.4840757 z M 133.78762,-2.4840757 L 145.03762,-2.4840757 L 139.31887,-13.734076 L 128.06887,-13.734076 L 133.78762,-2.4840757 z M 145.03762,-2.4840757 L 150.72512,8.7346743 L 161.97512,8.7346743 L 156.25637,-2.4840757 L 145.03762,-2.4840757 z M 150.72512,8.7346743 L 139.50637,8.7346743 L 145.19387,19.953424 L 156.44387,19.953424 L 150.72512,8.7346743 z M 145.19387,19.953424 L 133.97512,19.953424 L 139.66262,31.172174 L 150.91262,31.172174 L 145.19387,19.953424 z M 139.66262,31.172174 L 128.44387,31.172174 L 134.13137,42.422174 L 145.38137,42.422174 L 139.66262,31.172174 z M 145.38137,42.422174 L 151.10012,53.640924 L 162.31887,53.640924 L 156.63137,42.422174 L 145.38137,42.422174 z M 151.10012,53.640924 L 139.85012,53.640924 L 145.56887,64.859674 L 156.78762,64.859674 L 151.10012,53.640924 z M 145.56887,64.859674 L 134.31887,64.859674 L 140.03762,76.109672 L 151.25637,76.109672 L 145.56887,64.859674 z M 140.03762,76.109672 L 128.78762,76.109672 L 134.50637,87.328422 L 145.72512,87.328422 L 140.03762,76.109672 z M 145.72512,87.328422 L 151.44387,98.547172 L 162.69387,98.547172 L 156.97512,87.328422 L 145.72512,87.328422 z M 151.44387,98.547172 L 140.19387,98.547172 L 145.91262,109.76592 L 157.16262,109.76592 L 151.44387,98.547172 z M 145.91262,109.76592 L 134.69387,109.76592 L 140.38137,121.01592 L 151.63137,121.01592 L 145.91262,109.76592 z M 140.38137,121.01592 L 129.16262,121.01592 L 134.85012,132.23467 L 146.10012,132.23467 L 140.38137,121.01592 z M 146.10012,132.23467 L 151.78762,143.45342 L 163.03762,143.45342 L 157.31887,132.23467 L 146.10012,132.23467 z M 151.78762,143.45342 L 140.56887,143.45342 L 146.25637,154.70342 L 157.50637,154.70342 L 151.78762,143.45342 z M 146.25637,154.70342 L 135.03762,154.70342 L 140.75637,165.92217 L 151.97512,165.92217 L 146.25637,154.70342 z M 140.75637,165.92217 L 129.50637,165.92217 L 135.22512,177.14092 L 146.44387,177.14092 L 140.75637,165.92217 z M 146.44387,177.14092 L 152.16262,188.35967 L 163.38137,188.35967 L 157.69387,177.14092 L 146.44387,177.14092 z M 152.16262,188.35967 L 140.91262,188.35967 L 146.63137,199.60967 L 157.85012,199.60967 L 152.16262,188.35967 z M 146.63137,199.60967 L 135.38137,199.60967 L 141.10012,210.82842 L 152.35012,210.82842 L 146.63137,199.60967 z M 141.10012,210.82842 L 129.85012,210.82842 L 135.56887,222.04717 L 146.81887,222.04717 L 141.10012,210.82842 z M 146.81887,222.04717 L 152.50637,233.29717 L 163.75637,233.29717 L 158.03762,222.04717 L 146.81887,222.04717 z M 152.50637,233.29717 L 141.28762,233.29717 L 146.97512,244.51592 L 158.22512,244.51592 L 152.50637,233.29717 z M 146.97512,244.51592 L 135.75637,244.51592 L 141.44387,255.73467 L 152.69387,255.73467 L 146.97512,244.51592 z M 141.44387,255.73467 L 130.22512,255.73467 L 135.91262,266.95342 L 147.16262,266.95342 L 141.44387,255.73467 z M 147.16262,266.95342 L 152.88137,278.20342 L 164.10012,278.20342 L 158.41262,266.95342 L 147.16262,266.95342 z M 152.88137,278.20342 L 141.63137,278.20342 L 147.35012,289.42217 L 158.56887,289.42217 L 152.88137,278.20342 z M 147.35012,289.42217 L 136.10012,289.42217 L 141.81887,300.64092 L 153.03762,300.64092 L 147.35012,289.42217 z M 136.10012,289.42217 L 130.38137,278.20342 L 119.16262,278.20342 L 124.88137,289.42217 L 136.10012,289.42217 z M 119.16262,278.20342 L 113.44387,266.95342 L 102.22512,266.95342 L 107.91262,278.20342 L 119.16262,278.20342 z M 107.91262,278.20342 L 96.693869,278.20342 L 102.38137,289.42217 L 113.63137,289.42217 L 107.91262,278.20342 z M 113.63137,289.42217 L 119.35012,300.64092 L 130.56887,300.64092 L 124.85012,289.42217 L 113.63137,289.42217 z M 102.38137,289.42217 L 91.162619,289.42217 L 96.850119,300.64092 L 108.10012,300.64092 L 102.38137,289.42217 z M 91.162619,289.42217 L 85.443869,278.20342 L 74.225119,278.20342 L 79.912619,289.42217 L 91.162619,289.42217 z M 79.912619,289.42217 L 68.693869,289.42217 L 74.381369,300.64092 L 85.631369,300.64092 L 79.912619,289.42217 z M 68.693869,289.42217 L 62.975119,278.20342 L 51.725119,278.20342 L 57.443869,289.42217 L 68.693869,289.42217 z M 57.443869,289.42217 L 46.193869,289.42217 L 51.912619,300.64092 L 63.162619,300.64092 L 57.443869,289.42217 z M 46.193869,289.42217 L 40.506369,278.20342 L 29.256369,278.20342 L 34.975119,289.42217 L 46.193869,289.42217 z M 34.975119,289.42217 L 23.725119,289.42217 L 29.443869,300.64092 L 40.662619,300.64092 L 34.975119,289.42217 z M 23.725119,289.42217 L 18.037619,278.20342 L 6.7876200,278.20342 L 12.506369,289.42217 L 23.725119,289.42217 z M 12.506369,289.42217 L 1.2563700,289.42217 L 6.9751200,300.64092 L 18.193869,300.64092 L 12.506369,289.42217 z M 6.7876200,278.20342 L 1.0688700,266.95342 L -10.149880,266.95342 L -4.4311300,278.20342 L 6.7876200,278.20342 z M 1.0688700,266.95342 L 12.318869,266.95342 L 6.6001200,255.73467 L -4.6186300,255.73467 L 1.0688700,266.95342 z M 6.6001200,255.73467 L 17.850119,255.73467 L 12.131369,244.51592 L 0.91262000,244.51592 L 6.6001200,255.73467 z M 12.131369,244.51592 L 23.381369,244.51592 L 17.662619,233.29717 L 6.4438700,233.29717 L 12.131369,244.51592 z M 6.4438700,233.29717 L 0.72512000,222.04717 L -10.524880,222.04717 L -4.8061300,233.29717 L 6.4438700,233.29717 z M 0.72512000,222.04717 L 11.975120,222.04717 L 6.2563700,210.82842 L -4.9936300,210.82842 L 0.72512000,222.04717 z M 6.2563700,210.82842 L 17.506369,210.82842 L 11.787620,199.60967 L 0.53762000,199.60967 L 6.2563700,210.82842 z M 11.787620,199.60967 L 23.037619,199.60967 L 17.318869,188.35967 L 6.0688700,188.35967 L 11.787620,199.60967 z M 6.0688700,188.35967 L 0.38137000,177.14092 L -10.868630,177.14092 L -5.1498800,188.35967 L 6.0688700,188.35967 z M 0.38137000,177.14092 L 11.600120,177.14092 L 5.9126200,165.92217 L -5.3373800,165.92217 L 0.38137000,177.14092 z M 5.9126200,165.92217 L 17.131369,165.92217 L 11.443870,154.70342 L 0.19387000,154.70342 L 5.9126200,165.92217 z M 11.443870,154.70342 L 22.662619,154.70342 L 16.943869,143.45342 L 5.7251200,143.45342 L 11.443870,154.70342 z M 5.7251200,143.45342 L 0.0063700000,132.23467 L -11.212380,132.23467 L -5.5248800,143.45342 L 5.7251200,143.45342 z M 0.0063700000,132.23467 L 11.256370,132.23467 L 5.5376200,121.01592 L -5.6811300,121.01592 L 0.0063700000,132.23467 z M 5.5376200,121.01592 L 16.787619,121.01592 L 11.068870,109.76592 L -0.14988000,109.76592 L 5.5376200,121.01592 z M 11.068870,109.76592 L 22.318869,109.76592 L 16.600119,98.547172 L 5.3813700,98.547172 L 11.068870,109.76592 z M 5.3813700,98.547172 L -0.33738000,87.328422 L -11.587380,87.328422 L -5.8686300,98.547172 L 5.3813700,98.547172 z M -0.33738000,87.328422 L 10.881370,87.328422 L 5.1938700,76.109672 L -6.0561300,76.109672 L -0.33738000,87.328422 z M 5.1938700,76.109672 L 16.412619,76.109672 L 10.725120,64.859674 L -0.52488000,64.859674 L 5.1938700,76.109672 z M 10.725120,64.859674 L 21.943869,64.859674 L 16.256369,53.640924 L 5.0063700,53.640924 L 10.725120,64.859674 z M 5.0063700,53.640924 L -0.68113000,42.422174 L -11.931130,42.422174 L -6.2123800,53.640924 L 5.0063700,53.640924 z M -0.68113000,42.422174 L 10.537620,42.422174 L 4.8188700,31.172174 L -6.3998800,31.172174 L -0.68113000,42.422174 z M 4.8188700,31.172174 L 16.068869,31.172174 L 10.350120,19.953424 L -0.86863000,19.953424 L 4.8188700,31.172174 z M 10.350120,19.953424 L 21.600119,19.953424 L 15.881369,8.7346743 L 4.6626200,8.7346743 L 10.350120,19.953424 z M 4.6626200,8.7346743 L -1.0561300,-2.4840757 L -12.274880,-2.4840757 L -6.5873800,8.7346743 L 4.6626200,8.7346743 z M -1.0561300,-2.4840757 L 10.193870,-2.4840757 L 4.4751200,-13.734076 L -6.7436300,-13.734076 L -1.0561300,-2.4840757 z M 10.193870,-2.4840757 L 15.881369,8.7346743 L 27.131369,8.7346743 L 21.412619,-2.4840757 L 10.193870,-2.4840757 z M 27.131369,8.7346743 L 32.850119,19.953424 L 44.068869,19.953424 L 38.381369,8.7346743 L 27.131369,8.7346743 z M 44.068869,19.953424 L 49.787619,31.172174 L 61.006369,31.172174 L 55.318869,19.953424 L 44.068869,19.953424 z M 55.318869,19.953424 L 66.537619,19.953424 L 60.850119,8.7346743 L 49.600119,8.7346743 L 55.318869,19.953424 z M 66.537619,19.953424 L 72.256369,31.172174 L 83.506369,31.172174 L 77.787619,19.953424 L 66.537619,19.953424 z M 77.787619,19.953424 L 89.006369,19.953424 L 83.318869,8.7346743 L 72.068869,8.7346743 L 77.787619,19.953424 z M 89.006369,19.953424 L 94.725119,31.172174 L 105.97512,31.172174 L 100.25637,19.953424 L 89.006369,19.953424 z M 100.25637,19.953424 L 111.50637,19.953424 L 105.78762,8.7346743 L 94.537619,8.7346743 L 100.25637,19.953424 z M 111.50637,19.953424 L 117.19387,31.172174 L 128.44387,31.172174 L 122.72512,19.953424 L 111.50637,19.953424 z M 122.72512,19.953424 L 133.97512,19.953424 L 128.25637,8.7346743 L 117.03762,8.7346743 L 122.72512,19.953424 z M 117.19387,31.172174 L 105.97512,31.172174 L 111.66262,42.422174 L 122.91262,42.422174 L 117.19387,31.172174 z M 122.91262,42.422174 L 128.63137,53.640924 L 139.85012,53.640924 L 134.13137,42.422174 L 122.91262,42.422174 z M 128.63137,53.640924 L 117.38137,53.640924 L 123.10012,64.859674 L 134.31887,64.859674 L 128.63137,53.640924 z M 123.10012,64.859674 L 111.85012,64.859674 L 117.56887,76.109672 L 128.78762,76.109672 L 123.10012,64.859674 z M 117.56887,76.109672 L 106.31887,76.109672 L 112.03762,87.328422 L 123.25637,87.328422 L 117.56887,76.109672 z M 123.25637,87.328422 L 128.97512,98.547172 L 140.19387,98.547172 L 134.50637,87.328422 L 123.25637,87.328422 z M 128.97512,98.547172 L 117.72512,98.547172 L 123.44387,109.76592 L 134.69387,109.76592 L 128.97512,98.547172 z M 123.44387,109.76592 L 112.19387,109.76592 L 117.91262,121.01592 L 129.16262,121.01592 L 123.44387,109.76592 z M 117.91262,121.01592 L 106.66262,121.01592 L 112.38137,132.23467 L 123.63137,132.23467 L 117.91262,121.01592 z M 123.63137,132.23467 L 129.31887,143.45342 L 140.56887,143.45342 L 134.85012,132.23467 L 123.63137,132.23467 z M 129.31887,143.45342 L 118.10012,143.45342 L 123.78762,154.70342 L 135.03762,154.70342 L 129.31887,143.45342 z M 123.78762,154.70342 L 112.56887,154.70342 L 118.25637,165.92217 L 129.50637,165.92217 L 123.78762,154.70342 z M 118.25637,165.92217 L 107.03762,165.92217 L 112.72512,177.14092 L 123.97512,177.14092 L 118.25637,165.92217 z M 123.97512,177.14092 L 129.69387,188.35967 L 140.91262,188.35967 L 135.22512,177.14092 L 123.97512,177.14092 z M 129.69387,188.35967 L 118.44387,188.35967 L 124.16262,199.60967 L 135.38137,199.60967 L 129.69387,188.35967 z M 124.16262,199.60967 L 112.91262,199.60967 L 118.63137,210.82842 L 129.85012,210.82842 L 124.16262,199.60967 z M 118.63137,210.82842 L 107.38137,210.82842 L 113.10012,222.04717 L 124.31887,222.04717 L 118.63137,210.82842 z M 124.31887,222.04717 L 130.03762,233.29717 L 141.28762,233.29717 L 135.56887,222.04717 L 124.31887,222.04717 z M 130.03762,233.29717 L 118.78762,233.29717 L 124.50637,244.51592 L 135.75637,244.51592 L 130.03762,233.29717 z M 124.50637,244.51592 L 113.28762,244.51592 L 118.97512,255.73467 L 130.22512,255.73467 L 124.50637,244.51592 z M 118.97512,255.73467 L 107.75637,255.73467 L 113.44387,266.95342 L 124.69387,266.95342 L 118.97512,255.73467 z M 124.69387,266.95342 L 130.38137,278.20342 L 141.63137,278.20342 L 135.91262,266.95342 L 124.69387,266.95342 z M 107.75637,255.73467 L 102.03762,244.51592 L 90.787619,244.51592 L 96.506369,255.73467 L 107.75637,255.73467 z M 96.506369,255.73467 L 85.256369,255.73467 L 90.975119,266.95342 L 102.22512,266.95342 L 96.506369,255.73467 z M 90.975119,266.95342 L 79.725119,266.95342 L 85.443869,278.20342 L 96.693869,278.20342 L 90.975119,266.95342 z M 79.725119,266.95342 L 74.037619,255.73467 L 62.787619,255.73467 L 68.506369,266.95342 L 79.725119,266.95342 z M 68.506369,266.95342 L 57.256369,266.95342 L 62.975119,278.20342 L 74.225119,278.20342 L 68.506369,266.95342 z M 57.256369,266.95342 L 51.568869,255.73467 L 40.318869,255.73467 L 46.037619,266.95342 L 57.256369,266.95342 z M 46.037619,266.95342 L 34.787619,266.95342 L 40.506369,278.20342 L 51.725119,278.20342 L 46.037619,266.95342 z M 34.787619,266.95342 L 29.100119,255.73467 L 17.850119,255.73467 L 23.568869,266.95342 L 34.787619,266.95342 z M 23.568869,266.95342 L 12.318869,266.95342 L 18.037619,278.20342 L 29.256369,278.20342 L 23.568869,266.95342 z M 29.100119,255.73467 L 40.318869,255.73467 L 34.600119,244.51592 L 23.381369,244.51592 L 29.100119,255.73467 z M 34.600119,244.51592 L 45.850119,244.51592 L 40.131369,233.29717 L 28.912619,233.29717 L 34.600119,244.51592 z M 28.912619,233.29717 L 23.193869,222.04717 L 11.975120,222.04717 L 17.662619,233.29717 L 28.912619,233.29717 z M 23.193869,222.04717 L 34.443869,222.04717 L 28.725119,210.82842 L 17.506369,210.82842 L 23.193869,222.04717 z M 28.725119,210.82842 L 39.975119,210.82842 L 34.256369,199.60967 L 23.037619,199.60967 L 28.725119,210.82842 z M 34.256369,199.60967 L 45.506369,199.60967 L 39.787619,188.35967 L 28.537619,188.35967 L 34.256369,199.60967 z M 28.537619,188.35967 L 22.850119,177.14092 L 11.600120,177.14092 L 17.318869,188.35967 L 28.537619,188.35967 z M 22.850119,177.14092 L 34.068869,177.14092 L 28.381369,165.92217 L 17.131369,165.92217 L 22.850119,177.14092 z M 28.381369,165.92217 L 39.600119,165.92217 L 33.912619,154.70342 L 22.662619,154.70342 L 28.381369,165.92217 z M 33.912619,154.70342 L 45.131369,154.70342 L 39.443869,143.45342 L 28.193869,143.45342 L 33.912619,154.70342 z M 28.193869,143.45342 L 22.475119,132.23467 L 11.256370,132.23467 L 16.943869,143.45342 L 28.193869,143.45342 z M 22.475119,132.23467 L 33.725119,132.23467 L 28.006369,121.01592 L 16.787619,121.01592 L 22.475119,132.23467 z M 28.006369,121.01592 L 39.256369,121.01592 L 33.537619,109.76592 L 22.318869,109.76592 L 28.006369,121.01592 z M 33.537619,109.76592 L 44.787619,109.76592 L 39.068869,98.547172 L 27.850119,98.547172 L 33.537619,109.76592 z M 27.850119,98.547172 L 22.131369,87.328422 L 10.881370,87.328422 L 16.600119,98.547172 L 27.850119,98.547172 z M 22.131369,87.328422 L 33.381369,87.328422 L 27.662619,76.109672 L 16.412619,76.109672 L 22.131369,87.328422 z M 27.662619,76.109672 L 38.912619,76.109672 L 33.193869,64.859674 L 21.943869,64.859674 L 27.662619,76.109672 z M 33.193869,64.859674 L 44.443869,64.859674 L 38.725119,53.640924 L 27.475119,53.640924 L 33.193869,64.859674 z M 27.475119,53.640924 L 21.787619,42.422174 L 10.537620,42.422174 L 16.256369,53.640924 L 27.475119,53.640924 z M 21.787619,42.422174 L 33.006369,42.422174 L 27.318869,31.172174 L 16.068869,31.172174 L 21.787619,42.422174 z M 27.318869,31.172174 L 38.537619,31.172174 L 32.850119,19.953424 L 21.600119,19.953424 L 27.318869,31.172174 z M 38.537619,31.172174 L 44.256369,42.422174 L 55.475119,42.422174 L 49.787619,31.172174 L 38.537619,31.172174 z M 55.475119,42.422174 L 61.193869,53.640924 L 72.443869,53.640924 L 66.725119,42.422174 L 55.475119,42.422174 z M 66.725119,42.422174 L 77.975119,42.422174 L 72.256369,31.172174 L 61.006369,31.172174 L 66.725119,42.422174 z M 77.975119,42.422174 L 83.662619,53.640924 L 94.912619,53.640924 L 89.193869,42.422174 L 77.975119,42.422174 z M 89.193869,42.422174 L 100.44387,42.422174 L 94.725119,31.172174 L 83.506369,31.172174 L 89.193869,42.422174 z M 100.44387,42.422174 L 106.13137,53.640924 L 117.38137,53.640924 L 111.66262,42.422174 L 100.44387,42.422174 z M 106.13137,53.640924 L 94.912619,53.640924 L 100.60012,64.859674 L 111.85012,64.859674 L 106.13137,53.640924 z M 100.60012,64.859674 L 89.381369,64.859674 L 95.068869,76.109672 L 106.31887,76.109672 L 100.60012,64.859674 z M 95.068869,76.109672 L 83.850119,76.109672 L 89.568869,87.328422 L 100.78762,87.328422 L 95.068869,76.109672 z M 100.78762,87.328422 L 106.50637,98.547172 L 117.72512,98.547172 L 112.03762,87.328422 L 100.78762,87.328422 z M 106.50637,98.547172 L 95.256369,98.547172 L 100.97512,109.76592 L 112.19387,109.76592 L 106.50637,98.547172 z M 100.97512,109.76592 L 89.725119,109.76592 L 95.443869,121.01592 L 106.66262,121.01592 L 100.97512,109.76592 z M 95.443869,121.01592 L 84.193869,121.01592 L 89.912619,132.23467 L 101.13137,132.23467 L 95.443869,121.01592 z M 101.13137,132.23467 L 106.85012,143.45342 L 118.10012,143.45342 L 112.38137,132.23467 L 101.13137,132.23467 z M 106.85012,143.45342 L 95.631369,143.45342 L 101.31887,154.70342 L 112.56887,154.70342 L 106.85012,143.45342 z M 101.31887,154.70342 L 90.100119,154.70342 L 95.787619,165.92217 L 107.03762,165.92217 L 101.31887,154.70342 z M 95.787619,165.92217 L 84.568869,165.92217 L 90.256369,177.14092 L 101.50637,177.14092 L 95.787619,165.92217 z M 101.50637,177.14092 L 107.22512,188.35967 L 118.44387,188.35967 L 112.72512,177.14092 L 101.50637,177.14092 z M 107.22512,188.35967 L 95.975119,188.35967 L 101.69387,199.60967 L 112.91262,199.60967 L 107.22512,188.35967 z M 101.69387,199.60967 L 90.443869,199.60967 L 96.162619,210.82842 L 107.38137,210.82842 L 101.69387,199.60967 z M 96.162619,210.82842 L 84.912619,210.82842 L 90.631369,222.04717 L 101.85012,222.04717 L 96.162619,210.82842 z M 101.85012,222.04717 L 107.56887,233.29717 L 118.78762,233.29717 L 113.10012,222.04717 L 101.85012,222.04717 z M 107.56887,233.29717 L 96.318869,233.29717 L 102.03762,244.51592 L 113.28762,244.51592 L 107.56887,233.29717 z M 96.318869,233.29717 L 90.631369,222.04717 L 79.381369,222.04717 L 85.100119,233.29717 L 96.318869,233.29717 z M 85.100119,233.29717 L 73.850119,233.29717 L 79.568869,244.51592 L 90.787619,244.51592 L 85.100119,233.29717 z M 79.568869,244.51592 L 68.318869,244.51592 L 74.037619,255.73467 L 85.256369,255.73467 L 79.568869,244.51592 z M 68.318869,244.51592 L 62.631369,233.29717 L 51.381369,233.29717 L 57.100119,244.51592 L 68.318869,244.51592 z M 57.100119,244.51592 L 45.850119,244.51592 L 51.568869,255.73467 L 62.787619,255.73467 L 57.100119,244.51592 z M 51.381369,233.29717 L 45.662619,222.04717 L 34.443869,222.04717 L 40.131369,233.29717 L 51.381369,233.29717 z M 45.662619,222.04717 L 56.912619,222.04717 L 51.193869,210.82842 L 39.975119,210.82842 L 45.662619,222.04717 z M 51.193869,210.82842 L 62.443869,210.82842 L 56.725119,199.60967 L 45.506369,199.60967 L 51.193869,210.82842 z M 56.725119,199.60967 L 67.975119,199.60967 L 62.256369,188.35967 L 51.037619,188.35967 L 56.725119,199.60967 z M 51.037619,188.35967 L 45.318869,177.14092 L 34.068869,177.14092 L 39.787619,188.35967 L 51.037619,188.35967 z M 45.318869,177.14092 L 56.568869,177.14092 L 50.850119,165.92217 L 39.600119,165.92217 L 45.318869,177.14092 z M 50.850119,165.92217 L 62.100119,165.92217 L 56.381369,154.70342 L 45.131369,154.70342 L 50.850119,165.92217 z M 56.381369,154.70342 L 67.600119,154.70342 L 61.912619,143.45342 L 50.662619,143.45342 L 56.381369,154.70342 z M 50.662619,143.45342 L 44.975119,132.23467 L 33.725119,132.23467 L 39.443869,143.45342 L 50.662619,143.45342 z M 44.975119,132.23467 L 56.193869,132.23467 L 50.506369,121.01592 L 39.256369,121.01592 L 44.975119,132.23467 z M 50.506369,121.01592 L 61.725119,121.01592 L 56.006369,109.76592 L 44.787619,109.76592 L 50.506369,121.01592 z M 56.006369,109.76592 L 67.256369,109.76592 L 61.537619,98.547172 L 50.318869,98.547172 L 56.006369,109.76592 z M 50.318869,98.547172 L 44.600119,87.328422 L 33.381369,87.328422 L 39.068869,98.547172 L 50.318869,98.547172 z M 44.600119,87.328422 L 55.850119,87.328422 L 50.131369,76.109672 L 38.912619,76.109672 L 44.600119,87.328422 z M 50.131369,76.109672 L 61.381369,76.109672 L 55.662619,64.859674 L 44.443869,64.859674 L 50.131369,76.109672 z M 55.662619,64.859674 L 66.912619,64.859674 L 61.193869,53.640924 L 49.943869,53.640924 L 55.662619,64.859674 z M 49.943869,53.640924 L 44.256369,42.422174 L 33.006369,42.422174 L 38.725119,53.640924 L 49.943869,53.640924 z M 66.912619,64.859674 L 72.600119,76.109672 L 83.850119,76.109672 L 78.131369,64.859674 L 66.912619,64.859674 z M 78.131369,64.859674 L 89.381369,64.859674 L 83.662619,53.640924 L 72.443869,53.640924 L 78.131369,64.859674 z M 72.600119,76.109672 L 61.381369,76.109672 L 67.068869,87.328422 L 78.318869,87.328422 L 72.600119,76.109672 z M 78.318869,87.328422 L 84.037619,98.547172 L 95.256369,98.547172 L 89.568869,87.328422 L 78.318869,87.328422 z M 84.037619,98.547172 L 72.787619,98.547172 L 78.506369,109.76592 L 89.725119,109.76592 L 84.037619,98.547172 z M 78.506369,109.76592 L 67.256369,109.76592 L 72.975119,121.01592 L 84.193869,121.01592 L 78.506369,109.76592 z M 72.975119,121.01592 L 61.725119,121.01592 L 67.443869,132.23467 L 78.662619,132.23467 L 72.975119,121.01592 z M 78.662619,132.23467 L 84.381369,143.45342 L 95.631369,143.45342 L 89.912619,132.23467 L 78.662619,132.23467 z M 84.381369,143.45342 L 73.131369,143.45342 L 78.850119,154.70342 L 90.100119,154.70342 L 84.381369,143.45342 z M 78.850119,154.70342 L 67.600119,154.70342 L 73.318869,165.92217 L 84.568869,165.92217 L 78.850119,154.70342 z M 73.318869,165.92217 L 62.100119,165.92217 L 67.787619,177.14092 L 79.037619,177.14092 L 73.318869,165.92217 z M 79.037619,177.14092 L 84.725119,188.35967 L 95.975119,188.35967 L 90.256369,177.14092 L 79.037619,177.14092 z M 84.725119,188.35967 L 73.506369,188.35967 L 79.193869,199.60967 L 90.443869,199.60967 L 84.725119,188.35967 z M 79.193869,199.60967 L 67.975119,199.60967 L 73.662619,210.82842 L 84.912619,210.82842 L 79.193869,199.60967 z M 73.662619,210.82842 L 62.443869,210.82842 L 68.162619,222.04717 L 79.381369,222.04717 L 73.662619,210.82842 z M 68.162619,222.04717 L 56.912619,222.04717 L 62.631369,233.29717 L 73.850119,233.29717 L 68.162619,222.04717 z M 73.506369,188.35967 L 67.787619,177.14092 L 56.568869,177.14092 L 62.256369,188.35967 L 73.506369,188.35967 z M 73.131369,143.45342 L 67.443869,132.23467 L 56.193869,132.23467 L 61.912619,143.45342 L 73.131369,143.45342 z M 72.787619,98.547172 L 67.068869,87.328422 L 55.850119,87.328422 L 61.537619,98.547172 L 72.787619,98.547172 z "
           id="rect3270" />
      </g>
    </g>
  </g>
</svg>
