<?xml version="1.0" encoding="UTF-8" standalone="no"?>
<!-- Created with Inkscape (http://www.inkscape.org/) -->
<svg
   xmlns:dc="http://purl.org/dc/elements/1.1/"
   xmlns:cc="http://web.resource.org/cc/"
   xmlns:rdf="http://www.w3.org/1999/02/22-rdf-syntax-ns#"
   xmlns:svg="http://www.w3.org/2000/svg"
   xmlns="http://www.w3.org/2000/svg"
   xmlns:xlink="http://www.w3.org/1999/xlink"
   xmlns:sodipodi="http://inkscape.sourceforge.net/DTD/sodipodi-0.dtd"
   xmlns:inkscape="http://www.inkscape.org/namespaces/inkscape"
   width="5.6999996cm"
   height="10.000000cm"
   id="svg2"
   sodipodi:version="0.32"
   inkscape:version="0.42.2"
   sodipodi:docbase="/home/benjamin/c++/schafkopf/carddecks/svg"
   sodipodi:docname="herz7er.svg">
  <defs
     id="defs4">
    <radialGradient
       gradientTransform="matrix(0.712722,-0.135823,-0.179264,0.731676,3.997135,26.61576)"
       gradientUnits="userSpaceOnUse"
       r="7.7985249"
       fy="3.7351353"
       fx="28.899841"
       cy="3.7351353"
       cx="28.899841"
       id="radialGradient16370"
       xlink:href="#linearGradient16364"
       inkscape:collect="always" />
    <linearGradient
       id="linearGradient16364">
      <stop
         id="stop16366"
         offset="0.0000000"
         style="stop-color:#ffffff;stop-opacity:0.62176168;" />
      <stop
         id="stop16368"
         offset="1.0000000"
         style="stop-color:#ffffff;stop-opacity:0.0000000;" />
    </linearGradient>
    <linearGradient
       gradientUnits="userSpaceOnUse"
       y2="52.431179"
       x2="-1.7366759"
       y1="52.431179"
       x1="112.33946"
       id="linearGradient5277"
       xlink:href="#linearGradient5271"
       inkscape:collect="always" />
    <linearGradient
       id="linearGradient5271">
      <stop
         id="stop5273"
         offset="0.0000000"
         style="stop-color:#000000;stop-opacity:1.0000000;" />
      <stop
         id="stop5275"
         offset="1"
         style="stop-color:#ff2000;stop-opacity:0;" />
    </linearGradient>
    <linearGradient
       inkscape:collect="always"
       xlink:href="#linearGradient5271"
       id="linearGradient5372"
       gradientUnits="userSpaceOnUse"
       x1="112.33946"
       y1="52.431179"
       x2="-1.7366759"
       y2="52.431179" />
    <radialGradient
       inkscape:collect="always"
       xlink:href="#linearGradient16364"
       id="radialGradient5374"
       gradientUnits="userSpaceOnUse"
       gradientTransform="matrix(0.712722,-0.135823,-0.179264,0.731676,3.997135,26.61576)"
       cx="28.899841"
       cy="3.7351353"
       fx="28.899841"
       fy="3.7351353"
       r="7.7985249" />
    <linearGradient
       inkscape:collect="always"
       xlink:href="#linearGradient5271"
       id="linearGradient5376"
       gradientUnits="userSpaceOnUse"
       x1="112.33946"
       y1="52.431179"
       x2="-1.7366759"
       y2="52.431179" />
    <radialGradient
       inkscape:collect="always"
       xlink:href="#linearGradient16364"
       id="radialGradient5378"
       gradientUnits="userSpaceOnUse"
       gradientTransform="matrix(0.712722,-0.135823,-0.179264,0.731676,3.997135,26.61576)"
       cx="28.899841"
       cy="3.7351353"
       fx="28.899841"
       fy="3.7351353"
       r="7.7985249" />
    <linearGradient
       inkscape:collect="always"
       xlink:href="#linearGradient5271"
       id="linearGradient5380"
       gradientUnits="userSpaceOnUse"
       x1="112.33946"
       y1="52.431179"
       x2="-1.7366759"
       y2="52.431179" />
    <radialGradient
       inkscape:collect="always"
       xlink:href="#linearGradient16364"
       id="radialGradient5382"
       gradientUnits="userSpaceOnUse"
       gradientTransform="matrix(0.712722,-0.135823,-0.179264,0.731676,3.997135,26.61576)"
       cx="28.899841"
       cy="3.7351353"
       fx="28.899841"
       fy="3.7351353"
       r="7.7985249" />
    <linearGradient
       inkscape:collect="always"
       xlink:href="#linearGradient5271"
       id="linearGradient5384"
       gradientUnits="userSpaceOnUse"
       x1="112.33946"
       y1="52.431179"
       x2="-1.7366759"
       y2="52.431179" />
    <radialGradient
       inkscape:collect="always"
       xlink:href="#linearGradient16364"
       id="radialGradient5386"
       gradientUnits="userSpaceOnUse"
       gradientTransform="matrix(0.712722,-0.135823,-0.179264,0.731676,3.997135,26.61576)"
       cx="28.899841"
       cy="3.7351353"
       fx="28.899841"
       fy="3.7351353"
       r="7.7985249" />
    <linearGradient
       inkscape:collect="always"
       xlink:href="#linearGradient5271"
       id="linearGradient5388"
       gradientUnits="userSpaceOnUse"
       x1="112.33946"
       y1="52.431179"
       x2="-1.7366759"
       y2="52.431179" />
    <radialGradient
       inkscape:collect="always"
       xlink:href="#linearGradient16364"
       id="radialGradient5390"
       gradientUnits="userSpaceOnUse"
       gradientTransform="matrix(0.712722,-0.135823,-0.179264,0.731676,3.997135,26.61576)"
       cx="28.899841"
       cy="3.7351353"
       fx="28.899841"
       fy="3.7351353"
       r="7.7985249" />
  </defs>
  <sodipodi:namedview
     id="base"
     pagecolor="#ffffff"
     bordercolor="#666666"
     borderopacity="1.0"
     inkscape:pageopacity="0.0000000"
     inkscape:pageshadow="2"
     inkscape:zoom="1.5056926"
     inkscape:cx="27.958442"
     inkscape:cy="177.16924"
     inkscape:document-units="px"
     inkscape:current-layer="layer1"
     showguides="true"
     inkscape:guide-bbox="true"
     inkscape:window-width="1016"
     inkscape:window-height="698"
     inkscape:window-x="0"
     inkscape:window-y="0"
     showgrid="false" />
  <metadata
     id="metadata7">
    <rdf:RDF>
      <cc:Work
         rdf:about="">
        <dc:format>image/svg+xml</dc:format>
        <dc:type
           rdf:resource="http://purl.org/dc/dcmitype/StillImage" />
      </cc:Work>
    </rdf:RDF>
  </metadata>
  <g
     inkscape:label="Ebene 1"
     inkscape:groupmode="layer"
     id="layer1">
    <rect
       style="opacity:1.0000000;fill:#ffffff;fill-opacity:1.0000000;fill-rule:evenodd;stroke:#000000;stroke-width:0.70866144;stroke-linecap:butt;stroke-linejoin:round;stroke-miterlimit:4.0000000;stroke-dasharray:none;stroke-dashoffset:0.0000000;stroke-opacity:1.0000000"
       id="rect1600"
       width="180.91974"
       height="332.97681"
       x="11.263486"
       y="11.498372" />
    <path
       style="fill:none;fill-opacity:0.75000000;fill-rule:evenodd;stroke:#000000;stroke-width:0.70866142;stroke-linecap:butt;stroke-linejoin:miter;stroke-miterlimit:4.0000000;stroke-dasharray:none;stroke-opacity:1.0000000"
       d="M 14.676428,177.16536 L 187.29206,177.16536"
       id="path13403" />
    <path
       style="fill:#ffffff;fill-opacity:1.0000000;stroke:#000000;stroke-width:0.70962328;stroke-miterlimit:4.0000000;stroke-dasharray:none;stroke-opacity:1.0000000"
       d="M 20.609161,0.35530471 C 9.3984945,0.35530481 0.35495213,9.3582243 0.35495213,20.562204 L 0.35495213,333.70659 C 0.35495213,344.91059 9.3985045,353.97605 20.609161,353.97605 L 181.39065,353.97605 C 192.60130,353.97605 201.61356,344.91060 201.61355,333.70659 L 201.61355,20.562204 C 201.61354,9.3582143 192.60129,0.35530471 181.39065,0.35530471 L 20.609161,0.35530471 z M 31.878891,14.462599 L 170.08961,14.462599 C 179.72578,14.462599 187.46377,22.765045 187.46378,33.074217 L 187.46378,321.22586 C 187.46379,331.53503 179.72580,339.83750 170.08961,339.83748 L 31.878891,339.83748 C 22.242711,339.83748 14.473429,331.53502 14.473419,321.22586 L 14.473419,33.074217 C 14.473419,22.765045 22.242701,14.462598 31.878891,14.462599 z "
       id="path2586" />
    <rect
       style="opacity:1.0000000;fill:#ffffff;fill-opacity:1.0000000;fill-rule:evenodd;stroke:none;stroke-width:0.35433072;stroke-linecap:butt;stroke-linejoin:round;stroke-miterlimit:4.0000000;stroke-dasharray:none;stroke-dashoffset:0.0000000;stroke-opacity:1.0000000"
       id="rect10676"
       width="7.3842435"
       height="42.519684"
       x="11.792073"
       y="21.259853" />
    <text
       xml:space="preserve"
       style="font-size:27.668642px;font-style:normal;font-variant:normal;font-weight:bold;font-stretch:normal;text-align:start;line-height:125.00000%;writing-mode:lr-tb;text-anchor:start;fill:#000000;fill-opacity:1.0000000;stroke:none;stroke-width:1.0000000px;stroke-linecap:butt;stroke-linejoin:miter;stroke-opacity:1.0000000;font-family:Times New Roman"
       x="9.3714581"
       y="39.223217"
       id="text4099"
       sodipodi:linespacing="125.00000%"
       transform="scale(0.894110,1.118431)"><tspan
         sodipodi:role="line"
         id="tspan4101"
         x="9.3714581"
         y="39.223217">7</tspan></text>
    <use
       x="0.0000000"
       y="0.0000000"
       xlink:href="#rect10676"
       id="use4103"
       transform="translate(170.7122,0.531494)"
       width="201.96849"
       height="354.33072" />
    <use
       x="0.0000000"
       y="0.0000000"
       xlink:href="#text4099"
       id="use4105"
       transform="translate(172.5591,-1.868741e-4)"
       width="201.96849"
       height="354.33072" />
    <use
       x="0.0000000"
       y="0.0000000"
       xlink:href="#rect10676"
       id="use4107"
       transform="translate(-0.351984,269.2913)"
       width="201.96849"
       height="354.33072" />
    <use
       x="0.0000000"
       y="0.0000000"
       xlink:href="#rect10676"
       id="use4109"
       transform="translate(171.4162,269.2913)"
       width="201.96849"
       height="354.33072" />
    <use
       x="0.0000000"
       y="0.0000000"
       xlink:href="#text4099"
       id="use4111"
       transform="matrix(-1.000000,-1.534146e-17,1.534146e-17,-1.000000,201.9283,354.3241)"
       width="201.96849"
       height="354.33072" />
    <use
       x="0.0000000"
       y="0.0000000"
       xlink:href="#use4111"
       id="use4113"
       transform="translate(-172.5591,-2.389310e-7)"
       width="201.96849"
       height="354.33072" />
    <g
       id="g3105"
       inkscape:label="Layer 1"
       transform="translate(-148.0953,15.06059)">
      <path
         id="path4624"
         d="M 29.905418,3.7329631 C 23.302808,3.4620188 16.627064,4.6467743 11.823628,9.0068183 C 11.823618,9.0068183 -13.083671,23.623350 18.242663,57.074245 C 18.242663,57.074248 34.835893,76.407793 53.110383,101.13355 C 53.120663,101.11298 53.130230,101.09382 53.140519,101.07327 C 53.150809,101.09382 53.160376,101.11298 53.170656,101.13355 C 71.445145,76.407793 88.008237,57.074248 88.008239,57.074245 C 119.33457,23.623349 94.457421,9.0068193 94.457411,9.0068183 C 81.648250,-2.6199657 55.455548,8.3113413 53.140519,9.3081823 C 51.693626,8.6851553 40.909769,4.1845363 29.905418,3.7329631 z "
         style="fill:#ff2000;fill-opacity:1.0000000;fill-rule:evenodd;stroke:#000000;stroke-width:0.39330709;stroke-linecap:butt;stroke-linejoin:round;stroke-miterlimit:4.0000000;stroke-dasharray:none;stroke-dashoffset:0.0000000;stroke-opacity:1.0000000" />
      <path
         id="path4543"
         d="M 29.889135,3.7506494 C 23.286525,3.4797051 16.610781,4.6644606 11.807345,9.0245046 C 11.807335,9.0245046 -13.099954,23.641036 18.226380,57.091931 C 18.226380,57.091934 34.819610,76.425479 53.094100,101.15124 C 53.104380,101.13067 53.113947,101.11151 53.124236,101.09096 C 53.134526,101.11151 53.144093,101.13067 53.154373,101.15124 C 71.428862,76.425479 87.991954,57.091934 87.991956,57.091931 C 119.31829,23.641035 94.441138,9.0245056 94.441128,9.0245046 C 81.631967,-2.6022796 55.439265,8.3290276 53.124236,9.3258686 C 51.677343,8.7028416 40.893486,4.2022226 29.889135,3.7506494 z "
         style="fill:url(#linearGradient5277);fill-opacity:1.0000000;fill-rule:evenodd;stroke:#000000;stroke-width:0.39330709;stroke-linecap:butt;stroke-linejoin:round;stroke-miterlimit:4.0000000;stroke-dasharray:none;stroke-dashoffset:0.0000000;stroke-opacity:1.0000000" />
      <path
         transform="matrix(-1.228601,1.533055,-0.847466,-0.555633,65.26538,-7.122697)"
         d="M 31.826412 24.520084 A 7.7985249 7.7985249 0 1 1  16.229362,24.520084 A 7.7985249 7.7985249 0 1 1  31.826412 24.520084 z"
         sodipodi:ry="7.7985249"
         sodipodi:rx="7.7985249"
         sodipodi:cy="24.520084"
         sodipodi:cx="24.027887"
         id="path16362"
         style="opacity:1.0000000;fill:url(#radialGradient16370);fill-opacity:1.0000000;fill-rule:evenodd;stroke:none;stroke-width:0.27937976;stroke-linecap:butt;stroke-linejoin:round;stroke-miterlimit:4.0000000;stroke-dasharray:none;stroke-dashoffset:0.0000000;stroke-opacity:1.0000000"
         sodipodi:type="arc" />
    </g>
    <use
       x="0.0000000"
       y="0.0000000"
       xlink:href="#g3105"
       id="use3110"
       transform="matrix(0.144181,0.000000,0.000000,0.144181,28.16630,45.18999)"
       width="201.96849"
       height="354.33072" />
    <use
       x="0.0000000"
       y="0.0000000"
       xlink:href="#use3110"
       id="use3112"
       transform="translate(173.0416,-3.438387e-7)"
       width="201.96849"
       height="354.33072" />
    <use
       x="0.0000000"
       y="0.0000000"
       xlink:href="#use3110"
       id="use3116"
       transform="matrix(-1.000000,0.000000,0.000000,-1.000000,28.93248,354.3275)"
       width="201.96849"
       height="354.33072" />
    <use
       x="0.0000000"
       y="0.0000000"
       xlink:href="#use3110"
       id="use3118"
       transform="matrix(-1.000000,0.000000,0.000000,-1.000000,201.9876,354.3275)"
       width="201.96849"
       height="354.33072" />
    <g
       id="g5344"
       transform="translate(0.000000,4.100950e-2)">
      <g
         transform="translate(-0.412561,6.860937e-3)"
         id="g4734">
        <g
           transform="matrix(0.433972,0.000000,0.000000,0.433972,78.34321,42.44857)"
           inkscape:label="Layer 1"
           id="use3128">
          <path
             style="fill:#ff2000;fill-opacity:1.0000000;fill-rule:evenodd;stroke:#000000;stroke-width:0.39330709;stroke-linecap:butt;stroke-linejoin:round;stroke-miterlimit:4.0000000;stroke-dasharray:none;stroke-dashoffset:0.0000000;stroke-opacity:1.0000000"
             d="M 29.905418,3.7329631 C 23.302808,3.4620188 16.627064,4.6467743 11.823628,9.0068183 C 11.823618,9.0068183 -13.083671,23.623350 18.242663,57.074245 C 18.242663,57.074248 34.835893,76.407793 53.110383,101.13355 C 53.120663,101.11298 53.130230,101.09382 53.140519,101.07327 C 53.150809,101.09382 53.160376,101.11298 53.170656,101.13355 C 71.445145,76.407793 88.008237,57.074248 88.008239,57.074245 C 119.33457,23.623349 94.457421,9.0068193 94.457411,9.0068183 C 81.648250,-2.6199657 55.455548,8.3113413 53.140519,9.3081823 C 51.693626,8.6851553 40.909769,4.1845363 29.905418,3.7329631 z "
             id="path4676" />
          <path
             style="fill:url(#linearGradient5372);fill-opacity:1.0000000;fill-rule:evenodd;stroke:#000000;stroke-width:0.39330709;stroke-linecap:butt;stroke-linejoin:round;stroke-miterlimit:4.0000000;stroke-dasharray:none;stroke-dashoffset:0.0000000;stroke-opacity:1.0000000"
             d="M 29.889135,3.7506494 C 23.286525,3.4797051 16.610781,4.6644606 11.807345,9.0245046 C 11.807335,9.0245046 -13.099954,23.641036 18.226380,57.091931 C 18.226380,57.091934 34.819610,76.425479 53.094100,101.15124 C 53.104380,101.13067 53.113947,101.11151 53.124236,101.09096 C 53.134526,101.11151 53.144093,101.13067 53.154373,101.15124 C 71.428862,76.425479 87.991954,57.091934 87.991956,57.091931 C 119.31829,23.641035 94.441138,9.0245056 94.441128,9.0245046 C 81.631967,-2.6022796 55.439265,8.3290276 53.124236,9.3258686 C 51.677343,8.7028416 40.893486,4.2022226 29.889135,3.7506494 z "
             id="path4678" />
          <path
             sodipodi:type="arc"
             style="opacity:1.0000000;fill:url(#radialGradient5374);fill-opacity:1.0000000;fill-rule:evenodd;stroke:none;stroke-width:0.27937976;stroke-linecap:butt;stroke-linejoin:round;stroke-miterlimit:4.0000000;stroke-dasharray:none;stroke-dashoffset:0.0000000;stroke-opacity:1.0000000"
             id="path4680"
             sodipodi:cx="24.027887"
             sodipodi:cy="24.520084"
             sodipodi:rx="7.7985249"
             sodipodi:ry="7.7985249"
             d="M 31.826412 24.520084 A 7.7985249 7.7985249 0 1 1  16.229362,24.520084 A 7.7985249 7.7985249 0 1 1  31.826412 24.520084 z"
             transform="matrix(-1.228601,1.533055,-0.847466,-0.555633,65.26538,-7.122697)" />
        </g>
        <g
           transform="translate(-52.30657,16.44296)"
           id="use3135">
          <g
             transform="matrix(0.433972,0.000000,0.000000,0.433972,77.51809,97.56875)"
             inkscape:label="Layer 1"
             id="use4644">
            <path
               style="fill:#ff2000;fill-opacity:1.0000000;fill-rule:evenodd;stroke:#000000;stroke-width:0.39330709;stroke-linecap:butt;stroke-linejoin:round;stroke-miterlimit:4.0000000;stroke-dasharray:none;stroke-dashoffset:0.0000000;stroke-opacity:1.0000000"
               d="M 29.905418,3.7329631 C 23.302808,3.4620188 16.627064,4.6467743 11.823628,9.0068183 C 11.823618,9.0068183 -13.083671,23.623350 18.242663,57.074245 C 18.242663,57.074248 34.835893,76.407793 53.110383,101.13355 C 53.120663,101.11298 53.130230,101.09382 53.140519,101.07327 C 53.150809,101.09382 53.160376,101.11298 53.170656,101.13355 C 71.445145,76.407793 88.008237,57.074248 88.008239,57.074245 C 119.33457,23.623349 94.457421,9.0068193 94.457411,9.0068183 C 81.648250,-2.6199657 55.455548,8.3113413 53.140519,9.3081823 C 51.693626,8.6851553 40.909769,4.1845363 29.905418,3.7329631 z "
               id="path4712" />
            <path
               style="fill:url(#linearGradient5376);fill-opacity:1.0000000;fill-rule:evenodd;stroke:#000000;stroke-width:0.39330709;stroke-linecap:butt;stroke-linejoin:round;stroke-miterlimit:4.0000000;stroke-dasharray:none;stroke-dashoffset:0.0000000;stroke-opacity:1.0000000"
               d="M 29.889135,3.7506494 C 23.286525,3.4797051 16.610781,4.6644606 11.807345,9.0245046 C 11.807335,9.0245046 -13.099954,23.641036 18.226380,57.091931 C 18.226380,57.091934 34.819610,76.425479 53.094100,101.15124 C 53.104380,101.13067 53.113947,101.11151 53.124236,101.09096 C 53.134526,101.11151 53.144093,101.13067 53.154373,101.15124 C 71.428862,76.425479 87.991954,57.091934 87.991956,57.091931 C 119.31829,23.641035 94.441138,9.0245056 94.441128,9.0245046 C 81.631967,-2.6022796 55.439265,8.3290276 53.124236,9.3258686 C 51.677343,8.7028416 40.893486,4.2022226 29.889135,3.7506494 z "
               id="path4714" />
            <path
               sodipodi:type="arc"
               style="opacity:1.0000000;fill:url(#radialGradient5378);fill-opacity:1.0000000;fill-rule:evenodd;stroke:none;stroke-width:0.27937976;stroke-linecap:butt;stroke-linejoin:round;stroke-miterlimit:4.0000000;stroke-dasharray:none;stroke-dashoffset:0.0000000;stroke-opacity:1.0000000"
               id="path4716"
               sodipodi:cx="24.027887"
               sodipodi:cy="24.520084"
               sodipodi:rx="7.7985249"
               sodipodi:ry="7.7985249"
               d="M 31.826412 24.520084 A 7.7985249 7.7985249 0 1 1  16.229362,24.520084 A 7.7985249 7.7985249 0 1 1  31.826412 24.520084 z"
               transform="matrix(-1.228601,1.533055,-0.847466,-0.555633,65.26538,-7.122697)" />
          </g>
          <g
             transform="matrix(0.433972,0.000000,0.000000,0.433972,77.51809,69.45322)"
             inkscape:label="Layer 1"
             id="use4646">
            <path
               style="fill:#ff2000;fill-opacity:1.0000000;fill-rule:evenodd;stroke:#000000;stroke-width:0.39330709;stroke-linecap:butt;stroke-linejoin:round;stroke-miterlimit:4.0000000;stroke-dasharray:none;stroke-dashoffset:0.0000000;stroke-opacity:1.0000000"
               d="M 29.905418,3.7329631 C 23.302808,3.4620188 16.627064,4.6467743 11.823628,9.0068183 C 11.823618,9.0068183 -13.083671,23.623350 18.242663,57.074245 C 18.242663,57.074248 34.835893,76.407793 53.110383,101.13355 C 53.120663,101.11298 53.130230,101.09382 53.140519,101.07327 C 53.150809,101.09382 53.160376,101.11298 53.170656,101.13355 C 71.445145,76.407793 88.008237,57.074248 88.008239,57.074245 C 119.33457,23.623349 94.457421,9.0068193 94.457411,9.0068183 C 81.648250,-2.6199657 55.455548,8.3113413 53.140519,9.3081823 C 51.693626,8.6851553 40.909769,4.1845363 29.905418,3.7329631 z "
               id="path4724" />
            <path
               style="fill:url(#linearGradient5380);fill-opacity:1.0000000;fill-rule:evenodd;stroke:#000000;stroke-width:0.39330709;stroke-linecap:butt;stroke-linejoin:round;stroke-miterlimit:4.0000000;stroke-dasharray:none;stroke-dashoffset:0.0000000;stroke-opacity:1.0000000"
               d="M 29.889135,3.7506494 C 23.286525,3.4797051 16.610781,4.6644606 11.807345,9.0245046 C 11.807335,9.0245046 -13.099954,23.641036 18.226380,57.091931 C 18.226380,57.091934 34.819610,76.425479 53.094100,101.15124 C 53.104380,101.13067 53.113947,101.11151 53.124236,101.09096 C 53.134526,101.11151 53.144093,101.13067 53.154373,101.15124 C 71.428862,76.425479 87.991954,57.091934 87.991956,57.091931 C 119.31829,23.641035 94.441138,9.0245056 94.441128,9.0245046 C 81.631967,-2.6022796 55.439265,8.3290276 53.124236,9.3258686 C 51.677343,8.7028416 40.893486,4.2022226 29.889135,3.7506494 z "
               id="path4726" />
            <path
               sodipodi:type="arc"
               style="opacity:1.0000000;fill:url(#radialGradient5382);fill-opacity:1.0000000;fill-rule:evenodd;stroke:none;stroke-width:0.27937976;stroke-linecap:butt;stroke-linejoin:round;stroke-miterlimit:4.0000000;stroke-dasharray:none;stroke-dashoffset:0.0000000;stroke-opacity:1.0000000"
               id="path4728"
               sodipodi:cx="24.027887"
               sodipodi:cy="24.520084"
               sodipodi:rx="7.7985249"
               sodipodi:ry="7.7985249"
               d="M 31.826412 24.520084 A 7.7985249 7.7985249 0 1 1  16.229362,24.520084 A 7.7985249 7.7985249 0 1 1  31.826412 24.520084 z"
               transform="matrix(-1.228601,1.533055,-0.847466,-0.555633,65.26538,-7.122697)" />
          </g>
          <use
             x="0.0000000"
             y="0.0000000"
             xlink:href="#g3105"
             id="use4648"
             transform="matrix(0.433972,0.000000,0.000000,0.433972,141.7873,34.80184)"
             width="201.96849"
             height="354.33072" />
        </g>
        <g
           transform="translate(53.95681,16.44296)"
           id="use3137">
          <g
             transform="matrix(0.433972,0.000000,0.000000,0.433972,77.51809,97.56875)"
             inkscape:label="Layer 1"
             id="use4636">
            <path
               style="fill:#ff2000;fill-opacity:1.0000000;fill-rule:evenodd;stroke:#000000;stroke-width:0.39330709;stroke-linecap:butt;stroke-linejoin:round;stroke-miterlimit:4.0000000;stroke-dasharray:none;stroke-dashoffset:0.0000000;stroke-opacity:1.0000000"
               d="M 29.905418,3.7329631 C 23.302808,3.4620188 16.627064,4.6467743 11.823628,9.0068183 C 11.823618,9.0068183 -13.083671,23.623350 18.242663,57.074245 C 18.242663,57.074248 34.835893,76.407793 53.110383,101.13355 C 53.120663,101.11298 53.130230,101.09382 53.140519,101.07327 C 53.150809,101.09382 53.160376,101.11298 53.170656,101.13355 C 71.445145,76.407793 88.008237,57.074248 88.008239,57.074245 C 119.33457,23.623349 94.457421,9.0068193 94.457411,9.0068183 C 81.648250,-2.6199657 55.455548,8.3113413 53.140519,9.3081823 C 51.693626,8.6851553 40.909769,4.1845363 29.905418,3.7329631 z "
               id="path4688" />
            <path
               style="fill:url(#linearGradient5384);fill-opacity:1.0000000;fill-rule:evenodd;stroke:#000000;stroke-width:0.39330709;stroke-linecap:butt;stroke-linejoin:round;stroke-miterlimit:4.0000000;stroke-dasharray:none;stroke-dashoffset:0.0000000;stroke-opacity:1.0000000"
               d="M 29.889135,3.7506494 C 23.286525,3.4797051 16.610781,4.6644606 11.807345,9.0245046 C 11.807335,9.0245046 -13.099954,23.641036 18.226380,57.091931 C 18.226380,57.091934 34.819610,76.425479 53.094100,101.15124 C 53.104380,101.13067 53.113947,101.11151 53.124236,101.09096 C 53.134526,101.11151 53.144093,101.13067 53.154373,101.15124 C 71.428862,76.425479 87.991954,57.091934 87.991956,57.091931 C 119.31829,23.641035 94.441138,9.0245056 94.441128,9.0245046 C 81.631967,-2.6022796 55.439265,8.3290276 53.124236,9.3258686 C 51.677343,8.7028416 40.893486,4.2022226 29.889135,3.7506494 z "
               id="path4690" />
            <path
               sodipodi:type="arc"
               style="opacity:1.0000000;fill:url(#radialGradient5386);fill-opacity:1.0000000;fill-rule:evenodd;stroke:none;stroke-width:0.27937976;stroke-linecap:butt;stroke-linejoin:round;stroke-miterlimit:4.0000000;stroke-dasharray:none;stroke-dashoffset:0.0000000;stroke-opacity:1.0000000"
               id="path4692"
               sodipodi:cx="24.027887"
               sodipodi:cy="24.520084"
               sodipodi:rx="7.7985249"
               sodipodi:ry="7.7985249"
               d="M 31.826412 24.520084 A 7.7985249 7.7985249 0 1 1  16.229362,24.520084 A 7.7985249 7.7985249 0 1 1  31.826412 24.520084 z"
               transform="matrix(-1.228601,1.533055,-0.847466,-0.555633,65.26538,-7.122697)" />
          </g>
          <g
             transform="matrix(0.433972,0.000000,0.000000,0.433972,77.51809,69.45322)"
             inkscape:label="Layer 1"
             id="use4638">
            <path
               style="fill:#ff2000;fill-opacity:1.0000000;fill-rule:evenodd;stroke:#000000;stroke-width:0.39330709;stroke-linecap:butt;stroke-linejoin:round;stroke-miterlimit:4.0000000;stroke-dasharray:none;stroke-dashoffset:0.0000000;stroke-opacity:1.0000000"
               d="M 29.905418,3.7329631 C 23.302808,3.4620188 16.627064,4.6467743 11.823628,9.0068183 C 11.823618,9.0068183 -13.083671,23.623350 18.242663,57.074245 C 18.242663,57.074248 34.835893,76.407793 53.110383,101.13355 C 53.120663,101.11298 53.130230,101.09382 53.140519,101.07327 C 53.150809,101.09382 53.160376,101.11298 53.170656,101.13355 C 71.445145,76.407793 88.008237,57.074248 88.008239,57.074245 C 119.33457,23.623349 94.457421,9.0068193 94.457411,9.0068183 C 81.648250,-2.6199657 55.455548,8.3113413 53.140519,9.3081823 C 51.693626,8.6851553 40.909769,4.1845363 29.905418,3.7329631 z "
               id="path4700" />
            <path
               style="fill:url(#linearGradient5388);fill-opacity:1.0000000;fill-rule:evenodd;stroke:#000000;stroke-width:0.39330709;stroke-linecap:butt;stroke-linejoin:round;stroke-miterlimit:4.0000000;stroke-dasharray:none;stroke-dashoffset:0.0000000;stroke-opacity:1.0000000"
               d="M 29.889135,3.7506494 C 23.286525,3.4797051 16.610781,4.6644606 11.807345,9.0245046 C 11.807335,9.0245046 -13.099954,23.641036 18.226380,57.091931 C 18.226380,57.091934 34.819610,76.425479 53.094100,101.15124 C 53.104380,101.13067 53.113947,101.11151 53.124236,101.09096 C 53.134526,101.11151 53.144093,101.13067 53.154373,101.15124 C 71.428862,76.425479 87.991954,57.091934 87.991956,57.091931 C 119.31829,23.641035 94.441138,9.0245056 94.441128,9.0245046 C 81.631967,-2.6022796 55.439265,8.3290276 53.124236,9.3258686 C 51.677343,8.7028416 40.893486,4.2022226 29.889135,3.7506494 z "
               id="path4702" />
            <path
               sodipodi:type="arc"
               style="opacity:1.0000000;fill:url(#radialGradient5390);fill-opacity:1.0000000;fill-rule:evenodd;stroke:none;stroke-width:0.27937976;stroke-linecap:butt;stroke-linejoin:round;stroke-miterlimit:4.0000000;stroke-dasharray:none;stroke-dashoffset:0.0000000;stroke-opacity:1.0000000"
               id="path4704"
               sodipodi:cx="24.027887"
               sodipodi:cy="24.520084"
               sodipodi:rx="7.7985249"
               sodipodi:ry="7.7985249"
               d="M 31.826412 24.520084 A 7.7985249 7.7985249 0 1 1  16.229362,24.520084 A 7.7985249 7.7985249 0 1 1  31.826412 24.520084 z"
               transform="matrix(-1.228601,1.533055,-0.847466,-0.555633,65.26538,-7.122697)" />
          </g>
          <use
             x="0.0000000"
             y="0.0000000"
             xlink:href="#g3105"
             id="use4640"
             transform="matrix(0.433972,0.000000,0.000000,0.433972,141.7873,34.80184)"
             width="201.96849"
             height="354.33072" />
        </g>
      </g>
      <use
         height="354.33072"
         width="201.96849"
         transform="matrix(-1.000000,2.138589e-17,-2.138589e-17,-1.000000,201.9685,354.2487)"
         id="use4780"
         xlink:href="#g4734"
         y="0.0000000"
         x="0.0000000" />
    </g>
  </g>
</svg>
