<?xml version="1.0" encoding="UTF-8" standalone="no"?>
<!-- Created with Inkscape (http://www.inkscape.org/) -->
<svg
   xmlns:dc="http://purl.org/dc/elements/1.1/"
   xmlns:cc="http://web.resource.org/cc/"
   xmlns:rdf="http://www.w3.org/1999/02/22-rdf-syntax-ns#"
   xmlns:svg="http://www.w3.org/2000/svg"
   xmlns="http://www.w3.org/2000/svg"
   xmlns:xlink="http://www.w3.org/1999/xlink"
   xmlns:sodipodi="http://inkscape.sourceforge.net/DTD/sodipodi-0.dtd"
   xmlns:inkscape="http://www.inkscape.org/namespaces/inkscape"
   width="3.0000000cm"
   height="3.0000000cm"
   id="svg8515"
   sodipodi:version="0.32"
   inkscape:version="0.42.2"
   sodipodi:docbase="/home/benjamin/c++/schafkopf/carddecks/svg"
   sodipodi:docname="schelln2.svg">
  <defs
     id="defs3">
    <linearGradient
       id="linearGradient16364">
      <stop
         style="stop-color:#ffffff;stop-opacity:0.73056996;"
         offset="0.0000000"
         id="stop16366" />
      <stop
         style="stop-color:#ffffff;stop-opacity:0.0000000;"
         offset="1.0000000"
         id="stop16368" />
    </linearGradient>
    <linearGradient
       id="linearGradient2090">
      <stop
         style="stop-color:#000000;stop-opacity:0.72020727;"
         offset="0.0000000"
         id="stop2092" />
      <stop
         style="stop-color:#000000;stop-opacity:0.0000000;"
         offset="1.0000000"
         id="stop2094" />
    </linearGradient>
    <linearGradient
       inkscape:collect="always"
       xlink:href="#linearGradient2090"
       id="linearGradient2096"
       x1="79.272606"
       y1="52.551296"
       x2="41.274418"
       y2="52.551296"
       gradientUnits="userSpaceOnUse" />
    <linearGradient
       inkscape:collect="always"
       xlink:href="#linearGradient2090"
       id="linearGradient2106"
       x1="61.893311"
       y1="96.925735"
       x2="51.854931"
       y2="96.925735"
       gradientUnits="userSpaceOnUse" />
    <radialGradient
       inkscape:collect="always"
       xlink:href="#linearGradient16364"
       id="radialGradient2080"
       gradientUnits="userSpaceOnUse"
       cx="24.027887"
       cy="24.520084"
       fx="24.027887"
       fy="24.520084"
       r="7.7985249" />
  </defs>
  <sodipodi:namedview
     inkscape:document-units="mm"
     id="base"
     pagecolor="#ffffff"
     bordercolor="#666666"
     borderopacity="1.0"
     inkscape:pageopacity="0.0"
     inkscape:pageshadow="2"
     inkscape:zoom="5.3463230"
     inkscape:cx="52.587475"
     inkscape:cy="51.087500"
     inkscape:current-layer="layer1"
     inkscape:window-width="1016"
     inkscape:window-height="698"
     inkscape:window-x="0"
     inkscape:window-y="0"
     showguides="true"
     inkscape:guide-bbox="true" />
  <metadata
     id="metadata4">
    <rdf:RDF>
      <cc:Work
         rdf:about="">
        <dc:format>image/svg+xml</dc:format>
        <dc:type
           rdf:resource="http://purl.org/dc/dcmitype/StillImage" />
      </cc:Work>
    </rdf:RDF>
  </metadata>
  <g
     inkscape:label="Layer 1"
     inkscape:groupmode="layer"
     id="layer1">
    <path
       sodipodi:type="arc"
       style="opacity:1.0000000;fill:#feff00;fill-opacity:1.0000000;fill-rule:evenodd;stroke:#000000;stroke-width:0.35433071;stroke-linecap:butt;stroke-linejoin:round;stroke-miterlimit:4.0000000;stroke-dasharray:none;stroke-dashoffset:0.0000000;stroke-opacity:1.0000000"
       id="path10095"
       sodipodi:cx="53.648193"
       sodipodi:cy="96.925735"
       sodipodi:rx="9.3734760"
       sodipodi:ry="9.3734760"
       d="M 63.021669 96.925735 A 9.3734760 9.3734760 0 1 1  44.274717,96.925735 A 9.3734760 9.3734760 0 1 1  63.021669 96.925735 z"
       transform="translate(-0.498589,-1.417324)" />
    <path
       sodipodi:type="arc"
       style="opacity:1.0000000;fill:url(#linearGradient2106);fill-opacity:1.0;fill-rule:evenodd;stroke:#000000;stroke-width:0.35433071;stroke-linecap:butt;stroke-linejoin:round;stroke-miterlimit:4.0000000;stroke-dasharray:none;stroke-dashoffset:0.0000000;stroke-opacity:1.0000000"
       id="path2098"
       sodipodi:cx="53.648193"
       sodipodi:cy="96.925735"
       sodipodi:rx="9.3734760"
       sodipodi:ry="9.3734760"
       d="M 63.021669 96.925735 A 9.3734760 9.3734760 0 1 1  44.274717,96.925735 A 9.3734760 9.3734760 0 1 1  63.021669 96.925735 z"
       transform="translate(-0.514875,-1.417325)" />
    <path
       sodipodi:type="arc"
       style="opacity:1.0000000;fill:#feff00;fill-opacity:1.0000000;fill-rule:evenodd;stroke:#000000;stroke-width:0.22206279;stroke-linecap:butt;stroke-linejoin:round;stroke-miterlimit:4.0000000;stroke-dasharray:none;stroke-dashoffset:0.0000000;stroke-opacity:1.0000000"
       id="path8521"
       sodipodi:cx="54.944527"
       sodipodi:cy="52.551296"
       sodipodi:rx="27.422403"
       sodipodi:ry="27.422403"
       d="M 82.366930 52.551296 A 27.422403 27.422403 0 1 1  27.522123,52.551296 A 27.422403 27.422403 0 1 1  82.366930 52.551296 z"
       transform="matrix(1.595633,0.000000,0.000000,1.595633,-34.52170,-30.70298)" />
    <path
       style="fill:#000000;fill-opacity:0.15686275;fill-rule:evenodd;stroke:none;stroke-width:0.35433071;stroke-linecap:butt;stroke-linejoin:miter;stroke-opacity:1.0000000;stroke-miterlimit:4.0000000;stroke-dasharray:none"
       d="M 32.968760,61.193598 L 11.231116,65.359980 L 15.524604,75.674909 L 69.922755,78.764861 L 89.928881,75.236997 L 94.913483,65.651328 L 59.959668,59.925569 L 32.968760,61.193598 z "
       id="path10858"
       sodipodi:nodetypes="cccccccc" />
    <path
       style="opacity:1.0000000;fill:#e12600;fill-opacity:1.0000000;fill-rule:evenodd;stroke:#000000;stroke-width:0.35433071;stroke-linecap:butt;stroke-linejoin:round;stroke-miterlimit:4.0000000;stroke-dasharray:none;stroke-dashoffset:0.0000000;stroke-opacity:1.0000000"
       d="M 11.400168,40.581402 C 10.226979,44.532536 9.3997230,48.628843 9.3997230,52.959153 C 9.3997230,57.429854 10.246441,61.648443 11.493939,65.711987 L 94.824956,65.711987 C 96.072454,61.648442 96.919172,57.429855 96.919172,52.959153 C 96.919172,48.628842 96.091916,44.532536 94.918727,40.581402 L 11.400168,40.581402 z "
       id="path9251" />
    <path
       sodipodi:type="arc"
       style="opacity:1.0000000;fill:#050000;fill-opacity:0.34728029;fill-rule:evenodd;stroke:#000000;stroke-width:0.35433071;stroke-linecap:butt;stroke-linejoin:round;stroke-miterlimit:4.0000000;stroke-dasharray:none;stroke-dashoffset:0.0000000;stroke-opacity:1.0000000"
       id="path9256"
       sodipodi:cx="31.311399"
       sodipodi:cy="55.044243"
       sodipodi:rx="7.7779908"
       sodipodi:ry="7.7779908"
       d="M 39.089390 55.044243 A 7.7779908 7.7779908 0 1 1  23.533409,55.044243 A 7.7779908 7.7779908 0 1 1  39.089390 55.044243 z"
       transform="translate(-9.183015,-1.894638)" />
    <path
       sodipodi:type="arc"
       style="opacity:1.0000000;fill:#050000;fill-opacity:0.34728029;fill-rule:evenodd;stroke:#000000;stroke-width:0.35433071;stroke-linecap:butt;stroke-linejoin:round;stroke-miterlimit:4.0000000;stroke-dasharray:none;stroke-dashoffset:0.0000000;stroke-opacity:1.0000000"
       id="path9258"
       sodipodi:cx="31.311399"
       sodipodi:cy="55.044243"
       sodipodi:rx="7.7779908"
       sodipodi:ry="7.7779908"
       d="M 39.089390 55.044243 A 7.7779908 7.7779908 0 1 1  23.533409,55.044243 A 7.7779908 7.7779908 0 1 1  39.089390 55.044243 z"
       transform="translate(21.83821,-1.894638)" />
    <path
       sodipodi:type="arc"
       style="opacity:1.0000000;fill:#050000;fill-opacity:0.34728029;fill-rule:evenodd;stroke:#000000;stroke-width:0.35433071;stroke-linecap:butt;stroke-linejoin:round;stroke-miterlimit:4.0000000;stroke-dasharray:none;stroke-dashoffset:0.0000000;stroke-opacity:1.0000000"
       id="path9260"
       sodipodi:cx="31.311399"
       sodipodi:cy="55.044243"
       sodipodi:rx="7.7779908"
       sodipodi:ry="7.7779908"
       d="M 39.089390 55.044243 A 7.7779908 7.7779908 0 1 1  23.533409,55.044243 A 7.7779908 7.7779908 0 1 1  39.089390 55.044243 z"
       transform="translate(52.86029,-1.894638)" />
    <path
       style="opacity:1.0000000;fill:#050000;fill-opacity:0.34728029;fill-rule:evenodd;stroke:#000000;stroke-width:0.35433071;stroke-linecap:butt;stroke-linejoin:round;stroke-miterlimit:4.0000000;stroke-dasharray:none;stroke-dashoffset:0.0000000;stroke-opacity:1.0000000"
       d="M 53.149605,9.4062500 C 50.537512,9.4062500 48.011215,9.7167575 45.524605,10.156250 C 45.934607,14.064843 49.133010,17.156250 53.149605,17.156250 C 57.166754,17.156250 60.365345,14.065618 60.774605,10.156250 C 58.287995,9.7167575 55.761698,9.4062500 53.149605,9.4062500 z "
       id="path9262" />
    <path
       style="fill:#2c8836;fill-opacity:1.0000000;fill-rule:evenodd;stroke:#000000;stroke-width:0.35433071;stroke-linecap:butt;stroke-linejoin:miter;stroke-opacity:1.0000000;stroke-miterlimit:4.0000000;stroke-dasharray:none"
       d="M 61.294382,77.082096 C 62.562411,72.915714 66.119849,67.731319 70.714027,66.139791 C 75.242703,68.190182 76.329586,72.023687 77.778762,76.733506 L 65.641911,93.291336 L 61.294382,77.082096 z "
       id="path10854"
       sodipodi:nodetypes="ccccc" />
    <path
       style="fill:#2c8836;fill-opacity:1.0000000;fill-rule:evenodd;stroke:#000000;stroke-width:0.35433071;stroke-linecap:butt;stroke-linejoin:miter;stroke-opacity:1.0000000;stroke-miterlimit:4.0000000;stroke-dasharray:none"
       d="M 44.743317,77.066494 C 43.475288,72.900112 40.195649,67.637488 35.601471,66.045960 C 31.072795,68.096351 29.708113,72.008085 28.258937,76.717908 L 40.395788,93.275737 L 44.743317,77.066494 z "
       id="path10852"
       sodipodi:nodetypes="ccccc" />
    <path
       style="fill:#2c8836;fill-opacity:1.0000000;fill-rule:evenodd;stroke:#000000;stroke-width:0.35433071;stroke-linecap:butt;stroke-linejoin:miter;stroke-opacity:1.0000000;stroke-miterlimit:4.0000000;stroke-dasharray:none"
       d="M 53.062500 66.093750 C 49.035699 71.372969 36.082916 83.783236 42.968750 95.593750 C 46.253279 96.382091 49.631054 96.906250 53.156250 96.906250 C 56.577496 96.906250 59.866637 96.431333 63.062500 95.687500 C 69.632783 83.756691 57.321251 70.884841 53.062500 66.093750 z "
       id="path10841" />
    <path
       style="fill:#2c8836;fill-opacity:1.0000000;fill-rule:evenodd;stroke:#000000;stroke-width:0.35433071;stroke-linecap:butt;stroke-linejoin:miter;stroke-opacity:1.0000000;stroke-miterlimit:4.0000000;stroke-dasharray:none"
       d="M 94.718750 66.156250 C 83.893259 76.204437 66.729725 75.922380 62.437500 95.875000 C 77.846259 92.534176 90.059276 81.030651 94.718750 66.156250 z "
       id="path10850" />
    <path
       style="fill:#2c8836;fill-opacity:1.0000000;fill-rule:evenodd;stroke:#000000;stroke-width:0.35433071;stroke-linecap:butt;stroke-linejoin:miter;stroke-opacity:1.0000000;stroke-miterlimit:4.0000000;stroke-dasharray:none"
       d="M 11.562500 66.093750 C 16.152153 80.821858 28.167483 92.223194 43.343750 95.718750 C 39.081417 75.677220 22.376860 76.177315 11.562500 66.093750 z "
       id="path10845" />
    <path
       sodipodi:type="arc"
       style="opacity:1.0000000;fill:url(#linearGradient2096);fill-opacity:1.0000000;fill-rule:evenodd;stroke:#000000;stroke-width:0.22206280;stroke-linecap:butt;stroke-linejoin:round;stroke-miterlimit:4.0000000;stroke-dasharray:none;stroke-dashoffset:0.0000000;stroke-opacity:1.0000000"
       id="path2088"
       sodipodi:cx="54.944527"
       sodipodi:cy="52.551296"
       sodipodi:rx="27.422403"
       sodipodi:ry="27.422403"
       d="M 82.366930 52.551296 A 27.422403 27.422403 0 1 1  27.522123,52.551296 A 27.422403 27.422403 0 1 1  82.366930 52.551296 z"
       transform="matrix(1.595633,0.000000,0.000000,1.595633,-34.52544,-30.69923)" />
    <path
       sodipodi:type="arc"
       style="opacity:1.0000000;fill:url(#radialGradient2080);fill-opacity:1.0000000;fill-rule:evenodd;stroke:none;stroke-width:0.27937976;stroke-linecap:butt;stroke-linejoin:round;stroke-miterlimit:4.0000000;stroke-dasharray:none;stroke-dashoffset:0.0000000;stroke-opacity:1.0000000"
       id="path16362"
       sodipodi:cx="24.027887"
       sodipodi:cy="24.520084"
       sodipodi:rx="7.7985249"
       sodipodi:ry="7.7985249"
       d="M 31.826412 24.520084 A 7.7985249 7.7985249 0 1 1  16.229362,24.520084 A 7.7985249 7.7985249 0 1 1  31.826412 24.520084 z"
       transform="matrix(-2.667884,2.428410,-1.183888,-1.347244,123.9770,1.708077)" />
  </g>
</svg>
